<svg width="9" height="9" viewBox="0 0 9 9" fill="none" xmlns="http://www.w3.org/2000/svg">
<g clip-path="url(#clip0_201_447)">
<path fill-rule="evenodd" clip-rule="evenodd" d="M2.655 3.645L2.025 4.275L4.05 6.3L8.55 1.8L7.92 1.17L4.05 5.04L2.655 3.645ZM8.1 4.5C8.1 6.48 6.48 8.1 4.5 8.1C2.52 8.1 0.9 6.48 0.9 4.5C0.9 2.52 2.52 0.9 4.5 0.9C4.86 0.9 5.175 0.945 5.49 1.035L6.21 0.315C5.67 0.135 5.085 0 4.5 0C2.025 0 0 2.025 0 4.5C0 6.975 2.025 9 4.5 9C6.975 9 9 6.975 9 4.5H8.1Z" fill="#0ABC82"/>
</g>
<defs>
<clipPath id="clip0_201_447">
<rect width="9" height="9" fill="white"/>
</clipPath>
</defs>
</svg>
