<svg width="25" height="25" viewBox="0 0 25 25" fill="none" xmlns="http://www.w3.org/2000/svg">
<g clip-path="url(#clip0_138_32)">
<path fill-rule="evenodd" clip-rule="evenodd" d="M7.375 10.125L5.625 11.875L11.25 17.5L23.75 5L22 3.25L11.25 14L7.375 10.125ZM22.5 12.5C22.5 18 18 22.5 12.5 22.5C7 22.5 2.5 18 2.5 12.5C2.5 7 7 2.5 12.5 2.5C13.5 2.5 14.375 2.625 15.25 2.875L17.25 0.875C15.75 0.375 14.125 0 12.5 0C5.625 0 0 5.625 0 12.5C0 19.375 5.625 25 12.5 25C19.375 25 25 19.375 25 12.5H22.5Z" fill="white"/>
</g>
<defs>
<clipPath id="clip0_138_32">
<rect width="25" height="25" fill="white"/>
</clipPath>
</defs>
</svg>
